<svg version="1.1" xmlns="http://www.w3.org/2000/svg" xmlns:xlink="http://www.w3.org/1999/xlink" width="256.78571" height="256.78571" viewBox="0,0,256.78571,256.78571"><g transform="translate(-111.60714,-51.60714)"><g stroke-miterlimit="10"><path d="M247.65,132.45209l-65.07147,-20.1772l131.65623,-21.18606z" fill="#291a10" stroke="none" stroke-width="0" stroke-linecap="butt"/><path d="M249.90407,268.64819l-1.00886,-101.89486l92.31069,-36.31896l1.00886,99.87714z" fill="#e7cab7" stroke="none" stroke-width="0" stroke-linecap="butt"/><path d="M249.39964,161.70903l-2.01772,-30.77023l95.33727,-36.82339l-2.01772,37.83225z" fill="#d6ae93" stroke="none" stroke-width="0" stroke-linecap="butt"/><path d="M140.21942,250.23227l4.03544,-138.21382l102.39929,16.14176l-2.01772,142.24926z" fill="#46352a" stroke="none" stroke-width="0" stroke-linecap="butt"/><path d="M143.46934,254.01972l2.01772,-64.06261l98.36385,18.66391l1.00886,62.04489z" fill="#291a10" stroke="none" stroke-width="0" stroke-linecap="butt"/><path d="M149.93603,110.25136c18.92935,-2.11212 150.14229,-16.75272 183.57561,-20.48317c4.93377,-0.5505 7.73819,1.15454 7.73819,3.7537c0,12.10311 0,103.55184 0,129.27947c0,4.258 -2.46847,7.8299 -5.32011,9.11693c-9.32833,4.21013 -60.71001,27.40009 -81.1502,36.62531c-5.19441,2.34438 -12.07616,3.09124 -18.01846,1.9696c-21.90858,-4.13535 -74.49323,-14.06097 -86.14625,-16.26054c-4.47522,-0.84472 -8.74077,-5.09274 -8.74077,-10.88411c0,-28.04783 0,-111.17972 0,-125.08208c0,-3.86597 3.60273,-7.53754 8.062,-8.0351z" fill="none" stroke="#fffcfc" stroke-width="19" stroke-linecap="round"/><path d="M338.31167,90.58372l-91.503,40.71464l-100.31751,-18.4685" fill="none" stroke="#fffcfc" stroke-width="19" stroke-linecap="round"/><path d="M246.38892,132.13784v138.09397" fill="none" stroke="#fffcfc" stroke-width="19" stroke-linecap="round"/><path d="M337.47219,127.52071l-91.503,40.71464l-100.31751,-18.46849" fill="none" stroke="#fffcfc" stroke-width="19" stroke-linecap="round"/><path d="M145.65167,191.32097l100.31751,18.46849" fill="none" stroke="#fffcfc" stroke-width="19" stroke-linecap="round"/><path d="M111.60714,308.39286v-256.78571h256.78571v256.78571z" fill="none" stroke="none" stroke-width="0" stroke-linecap="butt"/></g></g></svg>