<svg version="1.1" xmlns="http://www.w3.org/2000/svg" xmlns:xlink="http://www.w3.org/1999/xlink" width="57.7347" height="41.2324" viewBox="0,0,57.7347,41.2324"><g transform="translate(-200.89447,-166.8733)"><g stroke-miterlimit="10"><path d="M246.39347,180.72548c0,0 0.73655,-3.97904 2.12119,-5.38462c1.70864,-1.73449 7.36455,-4.2446 7.36455,-4.2446c0,0 -1.19192,4.52421 -1.33148,6.50951c-0.13325,1.89546 0.51218,5.14526 0.51218,5.14526z" fill="#abbfff" stroke="none" stroke-width="0" stroke-linecap="butt"/><path d="M246.40879,180.74079c0,0 0.73655,-3.97903 2.12118,-5.38462c1.70864,-1.73449 6.17262,0.27961 6.03306,2.2649c-0.13325,1.89546 0.51217,5.14526 0.51217,5.14526z" fill="#98b0ff" stroke="none" stroke-width="0" stroke-linecap="butt"/><path d="M258.62784,181.14309c0,3.31749 0.16042,13.20181 -3.03833,18.45818c-4.06474,6.67941 -12.27222,8.50443 -19.12086,8.50443c-5.15814,0 -13.43924,-1.09516 -17.20478,-5.65277c-5.16857,-6.25576 -4.9544,-16.95177 -4.9544,-21.30983c0,-7.53312 10.1929,0.86099 22.43108,0.86099c12.23818,0 21.88729,-8.3941 21.88729,-0.86099z" fill="#abbfff" stroke="none" stroke-width="0" stroke-linecap="butt"/><path d="M220.9255,200.46554c0,0 -18.62529,5.63038 -17.48032,-8.53501c0.94129,-11.64559 13.76447,-8.9567 13.76447,-8.9567" fill="none" stroke="#abbfff" stroke-width="5" stroke-linecap="round"/><path d="M240.50171,190.82824c0,-2.07845 0.3668,-5.33489 -2.31108,-5.33489c-2.67788,0 -4.75811,2.42932 -4.75811,4.50777c0,2.07845 0.72076,4.0115 3.39865,4.0115c2.67788,0 3.67054,-1.10594 3.67054,-3.18439z" fill="#ffffff" stroke="none" stroke-width="0" stroke-linecap="butt"/><path d="M248.75177,189.37424c-0.26594,-1.89815 -0.99079,-4.81253 1.25907,-5.24733c2.24985,-0.4348 4.30841,1.44602 4.57435,3.34417c0.26594,1.89815 -0.09228,3.78054 -2.34213,4.21533c-2.24985,0.4348 -3.22535,-0.41403 -3.49129,-2.31218z" fill="#ffffff" stroke="none" stroke-width="0" stroke-linecap="butt"/><path d="M244.52791,193.35616c-0.0638,-0.04235 -0.14566,-0.12967 -0.09436,-0.28357c0.07906,-0.23717 0.31623,-0.15811 0.31623,-0.15811c1.9767,0.68778 5.42384,-2.08876 4.39324,1.00302c-1.85235,1.93303 -3.10212,2.12164 -5.13692,0.09181l-0.22464,-0.07488c-0.10216,-0.03142 -0.17641,-0.12653 -0.17641,-0.23899c0,-0.11246 0.07426,-0.20758 0.17641,-0.23899l0.26642,-0.08881l0.02241,0.06723c0.14976,-0.05544 0.28811,-0.07334 0.45762,-0.07869z" fill="#ffffff" stroke="none" stroke-width="0.5" stroke-linecap="butt"/><path d="M234.79198,184.2925c0,0 6.63783,-3.63102 9.14542,-5.7689c2.14995,-1.83297 4.99296,-6.28497 4.99296,-6.28497c0,0 2.80955,4.00538 2.80955,6.14476c0,1.8301 -3.80649,6.09038 -3.80649,6.09038z" fill="#abbfff" stroke="none" stroke-width="0" stroke-linecap="butt"/><path d="M220.47235,184.09311c0,0 2.05584,-4.50466 2.55699,-7.30518c0.5249,-2.93326 0.52445,-9.91463 0.52445,-9.91463c0,0 6.83947,5.57026 8.55361,8.67203c1.38909,2.51359 0.96261,8.54779 0.96261,8.54779z" fill="#abbfff" stroke="none" stroke-width="0" stroke-linecap="butt"/><path d="M225.66729,175.92264c0.12611,-1.39987 -0.21026,-3.97403 -0.21026,-3.97403c0,0 3.44437,4.45963 4.40958,5.87527c0.4502,0.66029 0.51629,2.89368 -0.15004,4.1286c-0.5554,1.02935 -1.78564,1.14369 -2.17504,1.14369c-0.41004,0 -2.47872,-0.45723 -2.82942,-1.74131c-0.45922,-1.68146 0.86146,-4.39207 0.95517,-5.43223z" fill="#ffffff" stroke="none" stroke-width="0" stroke-linecap="butt"/></g></g></svg>