<svg version="1.1" xmlns="http://www.w3.org/2000/svg" xmlns:xlink="http://www.w3.org/1999/xlink" width="31.94888" height="31.94888" viewBox="0,0,31.94888,31.94888"><g transform="translate(-224.02556,-164.02556)"><g fill="none" stroke-miterlimit="10"><path d="M239.33108,170.45652c0,0 2.56562,0 3.91374,0c1.44119,0 4.47284,3.15015 4.47284,5.59105c0,4.63129 0,9.58467 0,9.58467" stroke="#ffffff" stroke-width="4" stroke-linecap="round"/><path d="M244.28914,189.65656c0,-1.85271 1.50192,-3.35463 3.35463,-3.35463c1.85271,0 3.35463,1.50192 3.35463,3.35463c0,1.85271 -1.50192,3.35463 -3.35463,3.35463c-1.85271,0 -3.35463,-1.50192 -3.35463,-3.35463z" stroke="#ffffff" stroke-width="4" stroke-linecap="butt"/><path d="M232.43012,185.36067c0,0 0,-6.79045 0,-11.42173" stroke="#ffffff" stroke-width="4" stroke-linecap="round"/><path d="M229.0016,189.38499c0,-1.85271 1.50193,-3.35464 3.35464,-3.35464c1.85271,0 3.35464,1.50193 3.35464,3.35464c0,1.85271 -1.50192,3.35464 -3.35464,3.35464c-1.85271,0 -3.35464,-1.50192 -3.35464,-3.35464z" stroke="#ffffff" stroke-width="4" stroke-linecap="butt"/><path d="M229.04952,170.34346c0,-1.85271 1.50193,-3.35464 3.35464,-3.35464c1.85271,0 3.35464,1.50193 3.35464,3.35464c0,1.85271 -1.50192,3.35464 -3.35464,3.35464c-1.85271,0 -3.35464,-1.50192 -3.35464,-3.35464z" stroke="#ffffff" stroke-width="4" stroke-linecap="butt"/><path d="M239.33108,170.45651c0,0 2.56562,0 3.91374,0c1.44119,0 4.47284,3.15015 4.47284,5.59105c0,4.63129 0,9.58467 0,9.58467" stroke="#000000" stroke-width="2" stroke-linecap="round"/><path d="M244.28914,189.65655c0,-1.85271 1.50192,-3.35463 3.35463,-3.35463c1.85271,0 3.35463,1.50192 3.35463,3.35463c0,1.85271 -1.50192,3.35463 -3.35463,3.35463c-1.85271,0 -3.35463,-1.50192 -3.35463,-3.35463z" stroke="#000000" stroke-width="2" stroke-linecap="butt"/><path d="M232.43012,185.36066c0,0 0,-6.79045 0,-11.42173" stroke="#000000" stroke-width="2" stroke-linecap="round"/><path d="M229.0016,189.38498c0,-1.85271 1.50193,-3.35464 3.35464,-3.35464c1.85271,0 3.35464,1.50193 3.35464,3.35464c0,1.85271 -1.50192,3.35464 -3.35464,3.35464c-1.85271,0 -3.35464,-1.50192 -3.35464,-3.35464z" stroke="#000000" stroke-width="2" stroke-linecap="butt"/><path d="M229.04952,170.34345c0,-1.85271 1.50193,-3.35464 3.35464,-3.35464c1.85271,0 3.35464,1.50193 3.35464,3.35464c0,1.85271 -1.50192,3.35464 -3.35464,3.35464c-1.85271,0 -3.35464,-1.50192 -3.35464,-3.35464z" stroke="#000000" stroke-width="2" stroke-linecap="butt"/><path d="M224.02556,195.97444v-31.94888h31.94888v31.94888z" stroke="none" stroke-width="0" stroke-linecap="butt"/></g></g></svg>